# xmcd
#
# Track frame offsets:
#	150
#	16281
#	33989
#	49894
#	68383
#	85537
#	101201
#	121036
#	136745
#	148486
#	165234
#	184785
#	206901
#	223241
#	235149
#	247749
#	268299
#	285938
#	304458
#	316312
#
# Disc length: 4374 seconds
#
# Revision: 0
# Processed by: cddbd v1.5.1PL2 Copyright (c) Steve Scherf et al.
# Submitted via: audiograbber 1.83.01
#
DISCID=1c111414
DTITLE=Various Artist - Huisgenoot Treffers 2 Cd1
DYEAR=1900
DGENRE=Pop
TTITLE0=Smokie - Living Next Door to Alice
TTITLE1=Whigfield - Sexy Eyes
TTITLE2=Ace of Base - All That She Wants
TTITLE3=Belinda Carlisle - Heaven is a Place on Earth
TTITLE4=Jennifer Rush - Ring of Ice
TTITLE5=Boney M - Daddy Cool
TTITLE6=The Goombay Dance Band - Sun of Jamaica
TTITLE7=John Paul Young - Love is in the Air
TTITLE8=The Troggs - Wild Thing
TTITLE9=Tiffany - I Think We're Alone Now
TTITLE10=Laura Brannigan - Gloria
TTITLE11=Steve Hofmeyer - Prove me Wrong, Prove me Right
TTITLE12=Joe Dolan - More and More
TTITLE13=Dolly Parton - Jolene
TTITLE14=Don Williams - Some Broken Hearts Never Mend
TTITLE15=Pussycat - Mississippi
TTITLE16=Jason Donovan - Any Dream Will Do
TTITLE17=BZN - Waltzing Maria
TTITLE18=The Platters - The Great Pretender
TTITLE19=Richard Clyderman - Ballad for Adeline
EXTD=
EXTT0=
EXTT1=
EXTT2=
EXTT3=
EXTT4=
EXTT5=
EXTT6=
EXTT7=
EXTT8=
EXTT9=
EXTT10=
EXTT11=
EXTT12=
EXTT13=
EXTT14=
EXTT15=
EXTT16=
EXTT17=
EXTT18=
EXTT19=
PLAYORDER=
